<?xml version="1.0" encoding="utf-8"?>
<!-- Generator: Adobe Illustrator 25.4.1, SVG Export Plug-In . SVG Version: 6.00 Build 0)  -->
<svg version="1.1" id="Layer_1" xmlns="http://www.w3.org/2000/svg" xmlns:xlink="http://www.w3.org/1999/xlink" x="0px" y="0px"
	 viewBox="0 0 139 137" style="enable-background:new 0 0 139 137;" xml:space="preserve">
<style type="text/css">
	.st0{fill:#FFFFFF;}
	.st1{fill:#0637BF;}
</style>
<g>
	<g>
		<path class="st1" d="M40.98,87.76c0.47-0.02,0.94-0.03,1.42-0.03c0.29,0,0.58,0.01,0.87,0.02c1.33-3.44,2.89-6.81,4.68-10.09
			c-0.38-0.81-0.74-1.63-1.08-2.47C44.55,79.26,42.59,83.46,40.98,87.76z"/>
		<path class="st1" d="M100.12,45.26c1.69,5.46,2.82,11.05,3.4,16.7c0.75,0.55,1.52,1.14,2.32,1.8c-0.52-6.48-1.75-12.9-3.68-19.14
			C101.51,44.87,100.84,45.09,100.12,45.26z"/>
		<path class="st1" d="M28.82,79.38c-4.07,4.18,2.27,10.35,6.33,6.19S32.88,75.21,28.82,79.38z"/>
		<path class="st1" d="M128.84,67.56c0.01-5.06-0.61-10.12-1.88-15.04c4.61-2.62,2.07-9.74-3.1-8.98c-1.45-3.3-3.2-6.49-5.26-9.53
			c2-2.73-0.93-6.46-4.03-5.27c-2.86-3.34-6.15-6.42-9.69-9.07c-1.49-1.12-3.02-2.17-4.57-3.11c0.88-3.7-3.79-6.32-6.5-3.44
			c-2.19-1-4.43-1.84-6.71-2.56c-0.18,0.69-0.33,1.39-0.43,2.11c2.13,0.68,4.21,1.47,6.2,2.37c-0.35,2.1,1.21,4.19,3.34,4.42
			c0.43,2.72,0.74,5.44,0.91,8.19c-0.59,0.06-1.16,0.2-1.71,0.39c2.27,2.3,3.85,3.34,6.89,3.34c0.91,0,1.79,0.22,2.57,0.61
			c-1.06-2.2-3.23-3.87-5.6-4.28c-0.17-2.88-0.49-5.76-0.95-8.63c0.34-0.16,0.65-0.39,0.93-0.66c5.13,3.16,9.75,7.11,13.64,11.69
			c-0.23,0.35-0.39,0.75-0.47,1.15c-2.29,0.29-4.58,0.68-6.85,1.15c0.69,0.47,1.28,1.1,1.72,1.84c1.78-0.34,3.58-0.63,5.37-0.86
			c0.71,1.57,2.56,2.37,4.16,1.89c0.83,1.23,1.62,2.49,2.35,3.78c0.97,1.72,1.86,3.5,2.65,5.31l-1.24,1.24
			c-4.05-2.59-8.28-4.82-12.61-6.68c-0.16,0.69-0.44,1.36-0.83,1.96c4.36,1.87,8.6,4.12,12.67,6.75c-0.22,1.51,0.35,2.96,1.34,4
			c-1.08,1.17-2.2,2.3-3.34,3.39c-3.25-4.76-7.01-9.29-11.21-13.42c-0.1,0.12-0.19,0.24-0.3,0.35c-0.4,0.4-0.84,0.76-1.29,1.09
			c4.21,4.13,7.98,8.67,11.22,13.47c-3.1,2.85-6.38,5.41-9.79,7.73c0.49,0.42,0.99,0.86,1.5,1.33c0.05,0.05,0.1,0.09,0.14,0.14
			c3.24-2.23,6.37-4.68,9.34-7.38c2.22,3.46,4.17,7.05,5.82,10.7c-3.44,3.16-2.15,8.94,2.11,10.47c-0.89,4.12-2.27,8.16-4.02,11.98
			c0.02,0.48,0.03,0.96,0.03,1.44c0,0.14-0.01,0.28-0.01,0.43c0.01,0.26,0.01,0.52,0.01,0.78c0,0.8-0.03,1.6-0.08,2.4
			c2.95-5.27,5.04-10.9,6.27-16.66C134.82,79.79,135.94,69.19,128.84,67.56z M125.06,67.89c-1.72-3.77-3.75-7.46-6.05-11.03
			c1.34-1.29,2.67-2.62,3.94-4.01c0.58,0.23,1.23,0.33,1.89,0.3c1.18,4.62,1.8,9.42,1.8,14.31
			C126.11,67.53,125.57,67.68,125.06,67.89z"/>
		<path class="st1" d="M11.42,82.26c-5.91,3.43-2.47,12.56,4.19,11.33c0.52,1.06,1.07,2.09,1.65,3.12c0.56-0.45,1.12-0.9,1.71-1.32
			c-0.47-0.84-0.92-1.69-1.34-2.56c5.81-3.46,2.42-12.44-4.18-11.3c-1.51-5.95-2.08-12.19-1.59-18.51c2.61-0.1,5.13-1.78,5.94-4.5
			c8.46-1.64,17.1-2.02,25.65-1.11c0-0.72,0.02-1.43,0.05-2.14c-8.48-0.88-17.04-0.53-25.44,1.03c-0.03-0.69-0.19-1.39-0.47-2.04
			c9.06-7.66,19.35-13.16,30.18-16.49c0.41-0.88,0.84-1.76,1.3-2.62c-11.7,3.31-22.86,9.07-32.64,17.28l-2.21-1.58
			C17.35,40.42,24,30.25,32.78,23.02c3.12,3.27,8.4,3.17,11.38-0.22c3.19,1.67,6.29,3.56,9.29,5.66c0.44-0.56,0.89-1.11,1.36-1.66
			c-3.06-2.15-6.22-4.08-9.47-5.81c0.38-0.8,0.61-1.64,0.69-2.49c3.21,0.05,6.41,0.28,9.59,0.68c0.11-0.71,0.24-1.41,0.4-2.1
			c-3.34-0.43-6.7-0.67-10.07-0.72c-0.08-0.46-0.19-0.9-0.35-1.33c4.07-1.83,8.31-3.17,12.63-4.01c0.43-0.85,0.9-1.67,1.42-2.47
			c-5.24,0.85-10.31,2.39-15.08,4.56c-0.25-0.33-0.51-0.65-0.82-0.95c-6.29-6.13-16.16,1.44-12.27,9.04
			c-8.96,7.29-15.9,17.26-19.44,29.13c-7.5-0.43-9.24,10.28-2.32,12.4C9.19,69.41,9.81,75.99,11.42,82.26z"/>
		<path class="st1" d="M114.71,82.49c-0.02-0.04-0.03-0.1-0.05-0.14c0,0.01,0,0.01,0,0.02c-2.28-5.96-7.66-11.11-9.96-13.29
			c-6.95-6.55-9.87-6.42-15.41-12.23c-3.81-4-6.14-7.97-7.46-10.57c-4.11,3.47-6.74,7.07-8.47,10.12
			c-12.2,21.66,3.05,48.33,4.73,51.18c0.01,0,0.03,0.01,0.04,0.01c-4.31-0.99-8.27-2.91-11.65-5.53c0,0-0.01-0.01-0.02-0.02
			c-0.02-0.02-0.06-0.05-0.08-0.07c-0.01-0.01-0.04-0.02-0.05-0.04c-0.17-0.13-0.34-0.27-0.51-0.42c-0.17-0.13-0.33-0.26-0.5-0.4
			c-0.01-0.01-0.02-0.02-0.04-0.04c-0.3-0.27-0.59-0.55-0.89-0.82c-0.04-0.04-0.08-0.07-0.12-0.11c-0.01-0.01-0.04-0.02-0.05-0.04
			c-5.77-4.6-13.01-7.42-20.9-7.61c-0.31-0.02-0.62-0.02-0.93-0.02c-17.78,0-32.45,13.22-34.75,30.36
			c5.09-1.51,10.49-2.33,16.07-2.33c4.08,0,11.14-0.12,19.12,2.43c5.47,1.74,8.92,3.94,10.65,4.89c14.09,7.74,46.11,5.8,57.65-13.02
			c3.41-5.56,5.6-13.36,5.44-21.31c0,0,0.01-0.01,0.01-0.01c0.01-0.18,0.01-0.37,0.01-0.55c0,0,0.06-5.2-1.87-10.39
			C114.72,82.53,114.71,82.51,114.71,82.49z"/>
		<path class="st1" d="M102.3,36.15c-9.51,0-11.03-7.99-18.81-12.27c-1.12-2.69-1.75-5.65-1.75-8.75c0-2.3,0.33-4.5,0.97-6.59
			c-4.05,2.9-7.1,7.11-8.56,12.01c-1.23-0.2-2.5-0.3-3.83-0.3c-1.13-2.69-1.75-5.65-1.75-8.76c0-2.3,0.34-4.49,0.97-6.58
			c-5.75,4.11-9.5,10.85-9.5,18.47c0,1.48,0.15,2.9,0.42,4.3c-7.59,7.67-12.28,18.22-12.28,29.87c0,5.07,0.9,9.94,2.51,14.45
			c1.1,3.01,2.51,5.86,4.22,8.51c3.85,5.97,9.14,10.91,15.38,14.33c-7.08-7.59-11.41-17.79-11.41-28.98c0-0.6,0.01-1.19,0.03-1.77
			c0.01-0.35,0.03-0.68,0.06-1.01c0.55-8.58,2.82-17.17,8.52-22.87c5.84-5.84,28.31,5.51,35.43-1.6
			C103.75,37.8,103.45,36.15,102.3,36.15z M83.63,33.62c0,0-0.21,0.02-0.58,0.02c-1.54,0-6.77-0.34-9.68-4.68l-0.39-0.6l0.7-0.08
			c0.03,0,0.47-0.05,1.18-0.05c2.11,0,7.23,0.47,9.13,4.78l0.24,0.56L83.63,33.62z"/>
	</g>
</g>
</svg>
